<?xml version="1.0" encoding="iso-8859-1"?>
<!-- Generator: Adobe Illustrator 15.1.0, SVG Export Plug-In . SVG Version: 6.00 Build 0)  -->
<!DOCTYPE svg PUBLIC "-//W3C//DTD SVG 1.1//EN" "http://www.w3.org/Graphics/SVG/1.1/DTD/svg11.dtd">
<svg version="1.1" xmlns="http://www.w3.org/2000/svg" xmlns:xlink="http://www.w3.org/1999/xlink" x="0px" y="0px" width="16px"
	 height="32px" viewBox="0 0 16 32" style="enable-background:new 0 0 16 32;" xml:space="preserve">
<g id="Layer_1">
</g>
<g id="question_x5F_mark">
	<g>
		<path style="fill:#4E4E50;" d="M9.6,30c0,1.102-0.895,2-2,2s-2-0.898-2-2c0-1.109,0.895-2,2-2S9.6,28.891,9.6,30z"/>
		<path style="fill:#4E4E50;" d="M7.676,25.977c-1.336,0-2.59-0.523-3.535-1.469c-0.945-1.105-1.465-2.359-1.465-3.695
			s0.52-2.59,1.465-3.371l6.688-6.688C11.584,9.996,12,8.992,12,7.926c0-1.07-0.416-2.074-1.172-2.828
			c-1.559-1.559-4.096-1.562-5.654,0C4.416,5.852,4,6.855,4,7.926H0c0-2.137,0.834-4.148,2.348-5.66
			c3.02-3.023,8.285-3.02,11.309,0.004C15.168,3.777,16,5.785,16,7.926c0,2.137-0.832,4.145-2.344,5.656l-6.688,6.523
			c-0.389,0.391-0.389,1.023,0,1.414c0.391,0.391,1.023,0.391,1.414,0c0.254-0.258,0.293-0.555,0.293-0.711h4
			c0,1.336-0.52,2.594-1.465,3.699C10.266,25.453,9.012,25.977,7.676,25.977L7.676,25.977z"/>
	</g>
</g>
</svg>
