<?xml version="1.0" encoding="iso-8859-1"?>
<!-- Generator: Adobe Illustrator 15.1.0, SVG Export Plug-In . SVG Version: 6.00 Build 0)  -->
<!DOCTYPE svg PUBLIC "-//W3C//DTD SVG 1.1//EN" "http://www.w3.org/Graphics/SVG/1.1/DTD/svg11.dtd">
<svg version="1.1" xmlns="http://www.w3.org/2000/svg" xmlns:xlink="http://www.w3.org/1999/xlink" x="0px" y="0px"
	 width="32.002px" height="24px" viewBox="0 0 32.002 24" style="enable-background:new 0 0 32.002 24;" xml:space="preserve">
<g id="Layer_1">
</g>
<g id="comment_x5F_alt1_x5F_stroke">
	<g>
		<path style="fill:#4E4E50;" d="M16.002,4c11.07,0,12,4.129,12,8c0,1.344-0.359,2.805-0.75,4H14.004c-4.703,0-6.738,0.195-9,1.758
			c-0.938-2.57-1.54-6.047-0.379-8.84C5.977,5.656,9.805,4,16.002,4 M16.002,0C-6.368,0,0.011,20,4.008,24c4-4,4-4,9.996-4h15.936
			c0,0,2.062-4,2.062-8C32.002,2,24.002,0,16.002,0L16.002,0z"/>
	</g>
</g>
</svg>
