<?xml version="1.0" encoding="iso-8859-1"?>
<!-- Generator: Adobe Illustrator 15.1.0, SVG Export Plug-In . SVG Version: 6.00 Build 0)  -->
<!DOCTYPE svg PUBLIC "-//W3C//DTD SVG 1.1//EN" "http://www.w3.org/Graphics/SVG/1.1/DTD/svg11.dtd">
<svg version="1.1" xmlns="http://www.w3.org/2000/svg" xmlns:xlink="http://www.w3.org/1999/xlink" x="0px" y="0px"
	 width="31.992px" height="32px" viewBox="0 0 31.992 32" style="enable-background:new 0 0 31.992 32;" xml:space="preserve">
<g id="Layer_1">
</g>
<g id="eyedropper">
	<path style="fill:#4E4E50;" d="M29.648,13.684c3.125-3.119,3.125-8.18,0-11.297c-1.559-1.559-3.605-2.34-5.641-2.34
		c-2.047,0-4.092,0.781-5.646,2.34l-0.594,0.59L14.795,0l-2.818,2.822l2.975,2.975L0,20.758v7.25L3.93,32h7.414l14.895-14.906
		l2.879,2.877l2.828-2.82l-2.883-2.877L29.648,13.684z M10.32,27.367c0.047-1.516-0.477-3.035-1.629-4.188
		c-1.059-1.062-2.441-1.582-3.832-1.629L17.775,8.627l5.639,5.639L10.32,27.367z"/>
</g>
</svg>
