<?xml version="1.0" encoding="iso-8859-1"?>
<!-- Generator: Adobe Illustrator 15.1.0, SVG Export Plug-In . SVG Version: 6.00 Build 0)  -->
<!DOCTYPE svg PUBLIC "-//W3C//DTD SVG 1.1//EN" "http://www.w3.org/Graphics/SVG/1.1/DTD/svg11.dtd">
<svg version="1.1" xmlns="http://www.w3.org/2000/svg" xmlns:xlink="http://www.w3.org/1999/xlink" x="0px" y="0px" width="32px"
	 height="32.002px" viewBox="0 0 32 32.002" style="enable-background:new 0 0 32 32.002;" xml:space="preserve">
<g id="Layer_1">
</g>
<g id="undo">
	<g>
		<path style="fill:#4E4E50;" d="M28.156,3.719c-4.957-4.957-13.605-4.961-18.559,0L4,9.32V4H0v12.007h12v-3.92H6.977l5.453-5.537
			c3.445-3.449,9.453-3.449,12.898,0.004C27.051,8.277,28,10.566,28,13.088c0,2.357-0.949,4.646-2.672,6.373l-3.016,3.014
			l2.828,2.828l3.016-3.008C30.633,19.809,32,16.512,32,13.088C32,9.496,30.633,6.199,28.156,3.719z"/>
		<polygon style="fill:#4E4E50;" points="18.449,32.002 15.621,29.166 18.449,26.338 21.277,29.166 		"/>
	</g>
</g>
</svg>
